<svg xmlns="http://www.w3.org/2000/svg" xmlns:xlink="http://www.w3.org/1999/xlink" width="211.411" height="50" viewBox="0 0 211.411 50"><defs><linearGradient id="a" x1="-0.118" y1="0.156" x2="0.654" y2="0.844" gradientUnits="objectBoundingBox"><stop offset="0" stop-color="#e00a69"/><stop offset="0.245" stop-color="#d90965"/><stop offset="0.598" stop-color="#c5095c"/><stop offset="1" stop-color="#a8084f"/></linearGradient><linearGradient id="b" y1="0.5" x2="1" y2="0.5" gradientUnits="objectBoundingBox"><stop offset="0" stop-color="#92084f"/><stop offset="0.635" stop-color="#90084f"/><stop offset="0.863" stop-color="#89084f"/><stop offset="1" stop-color="#80084f"/></linearGradient><linearGradient id="c" y1="0.5" x2="1" y2="0.5" gradientUnits="objectBoundingBox"><stop offset="0" stop-color="#a8084f"/><stop offset="0.509" stop-color="#a5084f"/><stop offset="0.799" stop-color="#9d084f"/><stop offset="1" stop-color="#92084f"/></linearGradient><linearGradient id="d" x1="0" y1="0.5" x2="1" y2="0.5" xlink:href="#a"/></defs><g transform="translate(-35.168 -125.134)"><g transform="translate(117.521 125.134)"><path d="M105.9,136.316l2.817,0-.04,28.909-2.817,0Zm.024-11.182,2.817,0-.008,5.664-2.817,0Z" transform="translate(-105.863 -125.134)" fill="#1f2124"/><path d="M112.207,143.094c.007-4.883.009-6.823-.047-8.288l2.675,0a22.367,22.367,0,0,1,.129,2.826,4.792,4.792,0,0,1,4.855-3.279,4.032,4.032,0,0,1,4.387,3.5,5.253,5.253,0,0,1,5.18-3.49c2.608,0,5.249,1.055,5.242,6.578l-.031,22.8-2.817,0,.03-22.131c0-2.445-.375-4.58-3.074-4.584-3.2,0-3.9,3.014-3.908,6.32l-.028,20.386-2.825,0L122,141.9c0-3.453-.8-4.888-3.171-4.891-3.063,0-3.807,3.11-3.812,6.775L115,163.717l-2.817,0Z" transform="translate(-104.825 -123.613)" fill="#1f2124"/><path d="M134.835,160.638l.009-7.411,2.873,0-.009,7.411Z" transform="translate(-101.085 -120.501)" fill="#1f2124"/><path d="M145.289,161.334l-.018,12.3-3.651,0,.041-30.568c.006-3.984.009-6.556-.045-8.412l3.475,0a27.463,27.463,0,0,1,.151,3.17,5.158,5.158,0,0,1,5.261-3.622c3.971.006,5.9,2.662,5.9,8.427l-.017,12.455c-.009,6.4-2.566,9.174-6.313,9.168C147.081,164.252,145.868,162.694,145.289,161.334Zm7.405-6.157.016-12.475c.006-3.731-1.371-5.126-3.3-5.128-3.315,0-4.134,2.876-4.139,6.765l-.013,9.4c0,3.487.453,7.14,3.853,7.144C151.649,160.888,152.688,158.836,152.694,155.178Z" transform="translate(-99.967 -123.638)" fill="#1f2124"/><path d="M172.2,155.879c0,3.786-.008,6.512.047,7.9l-3.89-.006a27.116,27.116,0,0,1-.163-3.039c-.907,2.647-2.753,3.5-5.26,3.492-2.4,0-5.691-.942-5.682-7.476l.03-22.238,4.084.006-.029,21.167c0,3.468.928,4.832,3.1,4.836,2.053,0,3.679-1.234,3.686-6.817l.027-19.177,4.083,0Z" transform="translate(-97.389 -123.587)" fill="#1f2124"/><path d="M173.583,165.313l.055-40.06,5.147.007-.055,40.059Z" transform="translate(-94.696 -125.114)" fill="#1f2124"/><path d="M188.07,154.206l0,1.419c0,1.672.34,3.059,1.877,3.061,1.133,0,1.705-.719,1.708-2.338,0-1.646-.4-2.786-3.968-5.066-4.516-2.87-6.322-5.056-6.316-9.445.007-5.531,3.045-8.552,8.654-8.543,6.753.009,8.617,3.722,8.61,8.842l0,1.291-6.81-.009,0-1.836c0-1.913-.524-2.583-1.63-2.584s-1.6.813-1.6,2.191c0,1.413.615,2.124,3.215,3.732,5.6,3.475,7.271,5.9,7.266,10.4-.008,5.924-2.637,9.172-9.169,9.164-7.738-.01-8.92-4.805-8.914-9.175V154.2Z" transform="translate(-93.474 -123.788)" fill="#1f2124"/><path d="M219.408,156.222a72.046,72.046,0,0,0,.276,7.928l-8.732-.012a8.176,8.176,0,0,1-.514-2.414,6.1,6.1,0,0,1-5.576,2.807c-4.769-.006-6.6-4.26-6.595-9.143v-.631c.01-8.158,5.413-10.046,11.446-10.038h.459l0-3.447c0-1.666-.4-2.069-1.2-2.07s-1.208.516-1.21,2.354v1.264l-8.56-.012V142c.009-6.893,3.746-9.3,10.238-9.292,6.09.008,9.993,2.254,9.986,8.172Zm-9.242-5.7h-.4c-1.493,0-2.357,1.031-2.36,3.443v.229c0,2.355.57,2.988,1.432,2.989.977,0,1.322-.86,1.324-2.41Z" transform="translate(-90.625 -123.884)" fill="#1f2124"/></g><g transform="translate(35.168 130.038)"><path d="M97.165,143.963,72.813,129.9a2.974,2.974,0,0,0-4.462,2.576V160.6a2.974,2.974,0,0,0,4.462,2.576l24.352-14.06A2.974,2.974,0,0,0,97.165,143.963Z" transform="translate(-29.696 -129.318)" fill="url(#a)"/><path d="M67.147,143.876,43.539,157.841a2.532,2.532,0,0,1-3.822-2.18v-23.78a2.533,2.533,0,0,1,3.822-2.181l23.608,13.965A.122.122,0,0,1,67.147,143.876Z" transform="translate(-34.418 -129.344)" fill="url(#b)"/><path d="M36.575,151.838v-9.083a2.805,2.805,0,0,1,2.828-2.783l28.44,2.047" transform="translate(-34.936 -127.591)" fill="url(#c)"/><path d="M68.075,141.729l-31,9.2a2.662,2.662,0,0,0-1.9,2.551V160.6a.768.768,0,0,0,.987.736l30.388-9.02a2.145,2.145,0,0,0,1.533-2.055Z" transform="translate(-35.168 -127.302)" fill="url(#d)"/></g></g></svg>