<?xml version="1.0" encoding="UTF-8" standalone="no"?>
<svg
   xmlns:dc="http://purl.org/dc/elements/1.1/"
   xmlns:cc="http://creativecommons.org/ns#"
   xmlns:rdf="http://www.w3.org/1999/02/22-rdf-syntax-ns#"
   xmlns:svg="http://www.w3.org/2000/svg"
   xmlns="http://www.w3.org/2000/svg"
   width="78.560036mm"
   height="15.038613mm"
   viewBox="0 0 278.36233 53.286425"
   id="svg8413"
   version="1.1">
  <defs
     id="defs8415" />
  <metadata
     id="metadata8418">
    <rdf:RDF>
      <cc:Work
         rdf:about="">
        <dc:format>image/svg+xml</dc:format>
        <dc:type
           rdf:resource="http://purl.org/dc/dcmitype/StillImage" />
        <dc:title></dc:title>
      </cc:Work>
    </rdf:RDF>
  </metadata>
  <g
     id="layer1"
     transform="translate(-445.35771,-211.43326)">
    <g
       id="g4206">
      <path
         style="fill:#006633;fill-opacity:1"
         id="path7120"
         d="m 495.04871,240.29394 c -1.393,-0.153 -2.652,0.848 -2.8,2.248 -0.151,1.391 0.852,2.646 2.243,2.791 0.1,0.013 0.19,0.016 0.282,0.016 1.285,0 2.377,-0.963 2.517,-2.257 0.15,-1.401 -0.851,-2.65 -2.242,-2.798 z" />
      <path
         style="fill:#cc0000;fill-opacity:1"
         id="path7122"
         d="m 493.10071,229.03494 c -0.183,-1.387 -1.458,-2.363 -2.85,-2.181 -1.382,0.185 -2.361,1.462 -2.169,2.849 0.165,1.279 1.25,2.203 2.509,2.203 0.108,0 0.215,-0.004 0.339,-0.021 1.384,-0.186 2.361,-1.458 2.171,-2.85 z" />
      <path
         style="fill:#cc0000;fill-opacity:1"
         id="path7124"
         d="m 492.19871,222.15294 c 0.008,1.4 1.143,2.531 2.535,2.531 0.007,0 0.007,0 0.016,0 1.4,-0.004 2.525,-1.148 2.518,-2.548 0,-1.399 -1.144,-2.53 -2.543,-2.525 -1.401,0.002 -2.536,1.142 -2.526,2.542 z" />
      <path
         style="fill:#006633;fill-opacity:1"
         id="path7126"
         d="m 447.90071,258.58894 c -1.408,0 -2.543,1.136 -2.543,2.538 0,1.4 1.135,2.535 2.543,2.535 1.399,0 2.535,-1.135 2.535,-2.535 0,-1.402 -1.135,-2.538 -2.535,-2.538 z" />
      <path
         style="fill:#006633;fill-opacity:1"
         id="path7128"
         d="m 448.95271,250.92194 c -1.375,-0.234 -2.684,0.701 -2.916,2.076 -0.231,1.383 0.704,2.692 2.079,2.924 0.142,0.025 0.282,0.042 0.422,0.042 1.219,0 2.295,-0.883 2.501,-2.121 0.233,-1.383 -0.703,-2.692 -2.086,-2.921 z" />
      <circle
         style="fill:#ffcc00;fill-opacity:1"
         id="circle7130"
         r="2.5369999"
         cy="261.12595"
         cx="475.6647" />
      <path
         style="fill:#ffcc00;fill-opacity:1"
         id="path7132"
         d="m 478.29971,251.29694 c -1.275,-0.578 -2.775,0 -3.354,1.275 -0.571,1.278 0.008,2.777 1.283,3.35 0.339,0.154 0.688,0.227 1.036,0.227 0.969,0 1.897,-0.562 2.319,-1.506 0.571,-1.271 -0.009,-2.775 -1.284,-3.346 z" />
      <path
         style="fill:#cc0000;fill-opacity:1"
         id="path7134"
         d="m 480.10471,245.51394 c -1.044,0.937 -1.135,2.54 -0.199,3.584 0.506,0.555 1.193,0.84 1.89,0.84 0.605,0 1.208,-0.215 1.688,-0.643 1.043,-0.937 1.136,-2.543 0.2,-3.586 -0.938,-1.04 -2.535,-1.126 -3.579,-0.195 z" />
      <path
         style="fill:#ff6600;fill-opacity:1"
         id="path7136"
         d="m 487.41871,241.16294 c -1.334,0.426 -2.071,1.855 -1.64,3.191 0.339,1.074 1.342,1.762 2.411,1.762 0.256,0 0.521,-0.037 0.778,-0.12 1.333,-0.432 2.071,-1.855 1.64,-3.19 -0.43,-1.334 -1.856,-2.07 -3.189,-1.643 z" />
      <path
         style="fill:#ffcc00;fill-opacity:1"
         id="path7138"
         d="m 468.72271,258.58894 c -1.407,0 -2.533,1.136 -2.533,2.538 0,1.4 1.126,2.535 2.533,2.535 1.401,0 2.536,-1.135 2.536,-2.535 0,-1.402 -1.135,-2.538 -2.536,-2.538 z" />
      <path
         style="fill:#ffcc00;fill-opacity:1"
         id="path7140"
         d="m 470.64571,251.08494 c -1.333,-0.422 -2.758,0.322 -3.18,1.66 -0.414,1.34 0.323,2.759 1.656,3.178 0.257,0.078 0.514,0.119 0.763,0.119 1.085,0 2.087,-0.694 2.426,-1.775 l 0,0 c 0.414,-1.335 -0.323,-2.765 -1.665,-3.182 z" />
      <path
         style="fill:#cc0000;fill-opacity:1"
         id="path7142"
         d="m 471.84671,248.66694 c 0.44,0.311 0.953,0.455 1.45,0.455 0.804,0 1.582,-0.373 2.08,-1.076 0.803,-1.146 0.521,-2.729 -0.622,-3.533 -1.144,-0.807 -2.733,-0.525 -3.538,0.622 -0.794,1.145 -0.522,2.728 0.63,3.532 z" />
      <path
         style="fill:#cc0000;fill-opacity:1"
         id="path7144"
         d="m 478.63071,243.55194 c 0.539,0 1.085,-0.169 1.548,-0.531 1.103,-0.854 1.318,-2.446 0.457,-3.553 -0.854,-1.111 -2.443,-1.317 -3.554,-0.46 -1.11,0.849 -1.317,2.444 -0.464,3.553 0.497,0.647 1.251,0.991 2.013,0.991 z" />
      <path
         style="fill:#ff6600;fill-opacity:1"
         id="path7146"
         d="m 485.91971,239.56294 c 0.282,0 0.58,-0.049 0.87,-0.151 1.316,-0.486 1.987,-1.939 1.507,-3.251 -0.481,-1.321 -1.938,-1.996 -3.248,-1.511 -1.326,0.476 -1.997,1.933 -1.516,3.25 0.374,1.025 1.343,1.663 2.387,1.663 z" />
      <path
         style="fill:#006633;fill-opacity:1"
         id="path7148"
         d="m 461.77471,258.58894 c -1.399,0 -2.526,1.136 -2.526,2.538 0,1.4 1.127,2.535 2.526,2.535 1.409,0 2.544,-1.135 2.544,-2.535 0,-1.402 -1.136,-2.538 -2.544,-2.538 z" />
      <path
         style="fill:#006633;fill-opacity:1"
         id="path7150"
         d="m 463.29871,250.99294 c -1.367,-0.33 -2.733,0.508 -3.064,1.869 -0.331,1.358 0.505,2.732 1.863,3.061 0.198,0.049 0.398,0.075 0.604,0.075 1.135,0 2.179,-0.78 2.46,-1.938 0.332,-1.364 -0.504,-2.733 -1.863,-3.067 z" />
      <path
         style="fill:#003399;fill-opacity:1"
         id="path7152"
         d="m 467.66371,247.39894 c 0.646,-1.242 0.166,-2.775 -1.077,-3.418 -1.241,-0.65 -2.774,-0.168 -3.428,1.075 -0.638,1.241 -0.157,2.774 1.085,3.423 0.372,0.195 0.771,0.287 1.168,0.287 0.911,0 1.796,-0.498 2.252,-1.367 z" />
      <path
         style="fill:#003399;fill-opacity:1"
         id="path7154"
         d="m 471.68171,241.52694 c 0.919,-1.062 0.819,-2.66 -0.241,-3.583 -1.052,-0.919 -2.659,-0.815 -3.578,0.237 -0.92,1.052 -0.812,2.659 0.24,3.583 0.48,0.422 1.077,0.625 1.665,0.625 0.713,-0.001 1.409,-0.291 1.914,-0.862 z" />
      <path
         style="fill:#6633cc;fill-opacity:1"
         id="path7156"
         d="m 477.58671,233.22994 c -0.803,-1.145 -2.385,-1.423 -3.528,-0.616 -1.152,0.809 -1.425,2.386 -0.622,3.534 0.498,0.704 1.284,1.076 2.079,1.076 0.505,0 1.011,-0.144 1.458,-0.459 1.143,-0.809 1.425,-2.387 0.613,-3.535 z" />
      <path
         style="fill:#6633cc;fill-opacity:1"
         id="path7158"
         d="m 483.23571,233.39294 c 1.309,-0.506 1.947,-1.979 1.442,-3.289 -0.513,-1.304 -1.988,-1.942 -3.289,-1.437 -1.309,0.513 -1.955,1.983 -1.441,3.287 0.398,1.002 1.359,1.616 2.36,1.616 0.315,0.001 0.63,-0.053 0.928,-0.177 z" />
      <path
         style="fill:#cc0000;fill-opacity:1"
         id="path7160"
         d="m 501.36771,229.53194 c 0.148,-1.396 -0.861,-2.645 -2.262,-2.788 -1.392,-0.148 -2.634,0.864 -2.784,2.259 -0.149,1.387 0.862,2.637 2.253,2.788 0.1,0.008 0.183,0.011 0.274,0.011 1.276,-0.001 2.379,-0.969 2.519,-2.27 z" />
      <path
         style="fill:#006633;fill-opacity:1"
         id="path7162"
         d="m 454.56871,258.58894 c -1.4,0 -2.534,1.136 -2.534,2.538 0,1.4 1.134,2.535 2.534,2.535 1.408,0 2.543,-1.135 2.543,-2.535 0,-1.402 -1.135,-2.538 -2.543,-2.538 z" />
      <path
         style="fill:#006633;fill-opacity:1"
         id="path7164"
         d="m 455.81071,250.94394 c -1.375,-0.266 -2.708,0.625 -2.982,2.001 0,-0.005 0,-0.005 0,-0.005 -0.266,1.379 0.622,2.714 1.996,2.982 0.166,0.033 0.339,0.049 0.497,0.049 1.184,0 2.253,-0.835 2.485,-2.045 0.274,-1.375 -0.62,-2.709 -1.996,-2.982 z" />
      <path
         style="fill:#003399;fill-opacity:1"
         id="path7166"
         d="m 458.51971,243.69594 c -1.292,-0.537 -2.775,0.074 -3.313,1.371 0.009,0 0.009,0 0.009,0 -0.538,1.297 0.075,2.775 1.367,3.312 0.322,0.133 0.654,0.195 0.968,0.195 1.003,0 1.946,-0.588 2.353,-1.568 0.528,-1.293 -0.084,-2.779 -1.384,-3.31 z" />
      <path
         style="fill:#003399;fill-opacity:1"
         id="path7168"
         d="m 462.60271,237.11094 c -1.16,-0.781 -2.742,-0.467 -3.512,0.7 l 0,0 c -0.787,1.165 -0.472,2.742 0.697,3.516 0.43,0.287 0.928,0.432 1.407,0.432 0.82,0 1.623,-0.402 2.112,-1.135 0.771,-1.16 0.464,-2.739 -0.704,-3.513 z" />
      <path
         style="fill:#6633cc;fill-opacity:1"
         id="path7170"
         d="m 464.30071,235.03594 c 0.498,0.494 1.144,0.737 1.79,0.737 0.654,0 1.301,-0.243 1.798,-0.748 0.993,-0.986 0.985,-2.597 -0.008,-3.583 -0.986,-0.986 -2.601,-0.986 -3.579,0.008 -0.995,0.994 -0.995,2.597 -0.001,3.586 z" />
      <path
         style="fill:#6633cc;fill-opacity:1"
         id="path7172"
         d="m 469.94971,229.73594 c 0.489,0.724 1.292,1.118 2.104,1.118 0.488,0.005 0.985,-0.136 1.416,-0.427 1.16,-0.783 1.474,-2.365 0.688,-3.524 -0.779,-1.164 -2.36,-1.47 -3.521,-0.687 -1.159,0.778 -1.465,2.36 -0.687,3.52 z" />
      <path
         style="fill:#6633cc;fill-opacity:1"
         id="path7174"
         d="m 476.51871,225.63294 c 0.406,0.968 1.341,1.559 2.336,1.559 0.331,0 0.654,-0.06 0.985,-0.203 1.284,-0.537 1.896,-2.02 1.357,-3.314 -0.537,-1.295 -2.028,-1.905 -3.321,-1.366 -1.292,0.544 -1.896,2.03 -1.357,3.324 z" />
      <path
         style="fill:#cc0000;fill-opacity:1"
         id="path7176"
         d="m 483.75771,222.89394 c 0.249,1.196 1.3,2.033 2.486,2.033 0.166,0 0.331,-0.016 0.505,-0.054 1.366,-0.273 2.261,-1.611 1.988,-2.986 -0.282,-1.371 -1.616,-2.261 -2.99,-1.989 -1.376,0.284 -2.263,1.617 -1.989,2.996 z" />
      <path
         style="fill:#003399;fill-opacity:1"
         id="path7178"
         d="m 449.62371,248.32594 c 0.273,0.101 0.556,0.143 0.837,0.143 1.043,0 2.021,-0.655 2.385,-1.702 0.464,-1.322 -0.232,-2.771 -1.558,-3.228 -1.325,-0.463 -2.766,0.237 -3.23,1.558 -0.464,1.325 0.24,2.771 1.566,3.229 z" />
      <path
         style="fill:#003399;fill-opacity:1"
         id="path7180"
         d="m 452.38171,241.09194 c 0.382,0.211 0.804,0.312 1.217,0.312 0.896,0 1.764,-0.475 2.228,-1.312 0.679,-1.228 0.224,-2.769 -1.002,-3.448 -1.226,-0.676 -2.766,-0.224 -3.446,0.998 -0.67,1.23 -0.231,2.771 1.003,3.45 z" />
      <path
         style="fill:#6633cc;fill-opacity:1"
         id="path7182"
         d="m 456.31671,234.41694 c 0.463,0.367 1.019,0.549 1.574,0.549 0.745,0 1.482,-0.331 1.987,-0.96 0.871,-1.093 0.688,-2.696 -0.415,-3.561 -1.093,-0.871 -2.691,-0.689 -3.562,0.409 -0.868,1.098 -0.686,2.691 0.416,3.563 z" />
      <path
         style="fill:#6633cc;fill-opacity:1"
         id="path7184"
         d="m 463.18271,229.33394 c 0.604,0 1.217,-0.215 1.698,-0.65 1.043,-0.94 1.126,-2.543 0.19,-3.587 -0.944,-1.039 -2.542,-1.122 -3.587,-0.185 -1.035,0.94 -1.126,2.543 -0.182,3.586 0.498,0.549 1.194,0.836 1.881,0.836 z" />
      <path
         style="fill:#6633cc;fill-opacity:1"
         id="path7186"
         d="m 469.34471,224.65294 c 0.463,0 0.936,-0.127 1.35,-0.397 1.193,-0.75 1.533,-2.319 0.788,-3.499 -0.753,-1.182 -2.319,-1.533 -3.503,-0.783 -1.184,0.757 -1.533,2.322 -0.779,3.503 0.48,0.764 1.308,1.176 2.144,1.176 z" />
      <path
         style="fill:#6633cc;fill-opacity:1"
         id="path7188"
         d="m 476.18771,221.06694 c 0.331,0 0.662,-0.067 0.985,-0.198 1.292,-0.539 1.896,-2.03 1.351,-3.323 -0.54,-1.286 -2.03,-1.895 -3.322,-1.349 -1.292,0.539 -1.897,2.028 -1.351,3.322 0.406,0.968 1.343,1.548 2.337,1.548 z" />
      <path
         style="fill:#cc0000;fill-opacity:1"
         id="path7190"
         d="m 483.53371,218.68294 c 0.19,0 0.39,-0.023 0.58,-0.067 1.366,-0.32 2.211,-1.682 1.896,-3.045 -0.315,-1.37 -1.682,-2.215 -3.047,-1.896 -1.367,0.315 -2.212,1.685 -1.889,3.048 0.265,1.172 1.309,1.96 2.46,1.96 z" />
      <path
         style="fill:#cc0000;fill-opacity:1"
         id="path7192"
         d="m 491.18771,217.55994 c 0.058,0 0.108,0 0.158,0 1.399,-0.091 2.459,-1.296 2.377,-2.692 -0.091,-1.4 -1.292,-2.459 -2.692,-2.373 -1.399,0.083 -2.46,1.288 -2.368,2.687 0.081,1.341 1.2,2.378 2.525,2.378 z" />
      <path
         style="fill:#003399;fill-opacity:1"
         id="path7194"
         d="m 501.95471,241.42594 c -1.334,-0.422 -2.766,0.312 -3.189,1.645 -0.429,1.338 0.308,2.759 1.641,3.193 0.256,0.078 0.521,0.117 0.78,0.117 1.067,0 2.062,-0.686 2.409,-1.762 0.43,-1.332 -0.307,-2.766 -1.641,-3.193 z" />
      <path
         style="fill:#006633;fill-opacity:1"
         id="path7196"
         d="m 494.93971,233.25094 c -1.399,-0.062 -2.584,1.023 -2.651,2.423 -0.057,1.405 1.027,2.584 2.428,2.647 0.034,0 0.075,0 0.117,0 1.34,0 2.468,-1.06 2.524,-2.418 0.066,-1.405 -1.026,-2.585 -2.418,-2.652 z" />
      <path
         style="fill:#006633;fill-opacity:1"
         id="path7198"
         d="m 540.67071,258.58894 c -1.399,0 -2.535,1.136 -2.535,2.538 0,1.4 1.136,2.535 2.535,2.535 1.408,0 2.543,-1.135 2.543,-2.535 0,-1.402 -1.135,-2.538 -2.543,-2.538 z" />
      <path
         style="fill:#006633;fill-opacity:1"
         id="path7200"
         d="m 540.03071,255.96394 c 0.143,0 0.284,-0.017 0.424,-0.042 1.375,-0.231 2.312,-1.541 2.08,-2.924 -0.233,-1.375 -1.541,-2.311 -2.917,-2.076 -1.384,0.229 -2.318,1.537 -2.085,2.921 0.205,1.239 1.283,2.121 2.498,2.121 z" />
      <path
         style="fill:#cc0000;fill-opacity:1"
         id="path7202"
         d="m 497.76471,217.55994 c 0.049,0 0.1,0 0.157,0 1.326,0 2.444,-1.036 2.518,-2.377 0.091,-1.399 -0.969,-2.604 -2.368,-2.687 -1.401,-0.086 -2.601,0.973 -2.684,2.373 -0.092,1.394 0.968,2.599 2.377,2.691 z" />
      <circle
         style="fill:#ffcc00;fill-opacity:1"
         id="circle7204"
         r="2.5369999"
         cy="261.12595"
         cx="512.90674" />
      <path
         style="fill:#ffcc00;fill-opacity:1"
         id="path7206"
         d="m 512.34271,255.92194 c 1.276,-0.572 1.854,-2.071 1.283,-3.35 -0.579,-1.275 -2.078,-1.854 -3.354,-1.275 -1.275,0.57 -1.855,2.074 -1.284,3.346 0.424,0.943 1.35,1.506 2.32,1.506 0.348,0 0.694,-0.072 1.035,-0.227 z" />
      <path
         style="fill:#6633cc;fill-opacity:1"
         id="path7208"
         d="m 508.46571,245.51394 c -1.044,-0.932 -2.643,-0.846 -3.578,0.195 -0.936,1.043 -0.845,2.649 0.198,3.586 0.48,0.428 1.085,0.643 1.69,0.643 0.695,0 1.383,-0.285 1.888,-0.84 0.937,-1.044 0.846,-2.647 -0.198,-3.584 z" />
      <path
         style="fill:#ffcc00;fill-opacity:1"
         id="path7210"
         d="m 519.84671,258.58894 c -1.4,0 -2.535,1.136 -2.535,2.538 0,1.4 1.135,2.535 2.535,2.535 1.408,0 2.536,-1.135 2.536,-2.535 0,-1.402 -1.128,-2.538 -2.536,-2.538 z" />
      <path
         style="fill:#ffcc00;fill-opacity:1"
         id="path7212"
         d="m 519.44871,255.92194 c 1.334,-0.419 2.072,-1.838 1.659,-3.178 -0.424,-1.338 -1.849,-2.082 -3.184,-1.66 -1.341,0.418 -2.077,1.848 -1.664,3.182 l 0,0 c 0.34,1.081 1.343,1.775 2.428,1.775 0.249,0.001 0.504,-0.04 0.761,-0.119 z" />
      <path
         style="fill:#6633cc;fill-opacity:1"
         id="path7214"
         d="m 515.27471,249.12194 c 0.497,0 1.01,-0.145 1.449,-0.455 1.152,-0.804 1.424,-2.387 0.63,-3.532 -0.804,-1.147 -2.394,-1.429 -3.537,-0.622 -1.143,0.805 -1.424,2.387 -0.621,3.533 0.497,0.703 1.277,1.076 2.079,1.076 z" />
      <path
         style="fill:#6633cc;fill-opacity:1"
         id="path7216"
         d="m 508.39271,243.02094 c 0.465,0.362 1.01,0.531 1.548,0.531 0.761,0 1.515,-0.345 2.013,-0.991 0.854,-1.109 0.646,-2.705 -0.463,-3.553 -1.111,-0.857 -2.701,-0.65 -3.555,0.46 -0.862,1.107 -0.647,2.7 0.457,3.553 z" />
      <path
         style="fill:#003399;fill-opacity:1"
         id="path7218"
         d="m 503.78571,234.64794 c -1.31,-0.485 -2.768,0.19 -3.248,1.511 -0.479,1.312 0.191,2.765 1.518,3.251 0.28,0.102 0.58,0.151 0.868,0.151 1.035,0 2.006,-0.638 2.377,-1.664 0.481,-1.315 -0.19,-2.772 -1.515,-3.249 z" />
      <path
         style="fill:#006633;fill-opacity:1"
         id="path7220"
         d="m 526.79571,258.58894 c -1.407,0 -2.543,1.136 -2.543,2.538 0,1.4 1.136,2.535 2.543,2.535 1.393,0 2.526,-1.135 2.526,-2.535 10e-4,-1.402 -1.133,-2.538 -2.526,-2.538 z" />
      <path
         style="fill:#006633;fill-opacity:1"
         id="path7222"
         d="m 526.47371,255.92194 c 1.358,-0.328 2.193,-1.702 1.863,-3.061 -0.331,-1.361 -1.699,-2.199 -3.065,-1.869 -1.358,0.334 -2.194,1.703 -1.863,3.066 0.282,1.158 1.326,1.938 2.461,1.938 0.206,0.002 0.404,-0.025 0.604,-0.074 z" />
      <path
         style="fill:#ffcc00;fill-opacity:1"
         id="path7224"
         d="m 525.41171,245.05594 c -0.653,-1.243 -2.187,-1.726 -3.428,-1.075 -1.243,0.643 -1.724,2.176 -1.077,3.418 0.455,0.869 1.343,1.367 2.254,1.367 0.396,0 0.792,-0.092 1.165,-0.287 1.244,-0.648 1.726,-2.182 1.086,-3.423 z" />
      <path
         style="fill:#ffcc00;fill-opacity:1"
         id="path7226"
         d="m 520.46871,241.76294 c 1.052,-0.924 1.159,-2.531 0.239,-3.583 -0.918,-1.052 -2.526,-1.156 -3.578,-0.237 -1.051,0.924 -1.158,2.522 -0.239,3.583 0.504,0.571 1.199,0.861 1.913,0.861 0.588,10e-4 1.185,-0.202 1.665,-0.624 z" />
      <path
         style="fill:#ff6600;fill-opacity:1"
         id="path7228"
         d="m 515.13371,236.14694 c 0.804,-1.147 0.53,-2.725 -0.623,-3.534 -1.143,-0.807 -2.725,-0.529 -3.527,0.616 -0.812,1.148 -0.529,2.727 0.613,3.534 0.448,0.315 0.952,0.459 1.457,0.459 0.797,0.001 1.583,-0.371 2.08,-1.075 z" />
      <path
         style="fill:#ff6600;fill-opacity:1"
         id="path7230"
         d="m 508.62371,231.95494 c 0.513,-1.304 -0.132,-2.774 -1.442,-3.287 -1.3,-0.505 -2.772,0.133 -3.289,1.437 -0.505,1.31 0.133,2.783 1.442,3.289 0.299,0.124 0.614,0.178 0.929,0.178 1.001,-0.001 1.962,-0.615 2.36,-1.617 z" />
      <path
         style="fill:#006633;fill-opacity:1"
         id="path7232"
         d="m 534.00271,258.58894 c -1.408,0 -2.543,1.136 -2.543,2.538 0,1.4 1.135,2.535 2.543,2.535 1.399,0 2.532,-1.135 2.532,-2.535 0,-1.402 -1.132,-2.538 -2.532,-2.538 z" />
      <path
         style="fill:#006633;fill-opacity:1"
         id="path7234"
         d="m 533.24771,255.97094 c 0.157,0 0.333,-0.016 0.497,-0.049 1.374,-0.269 2.262,-1.604 1.988,-2.982 0,0 0,0 0,0.005 -0.265,-1.376 -1.598,-2.267 -2.975,-2.001 -1.374,0.273 -2.27,1.607 -1.994,2.982 0.233,1.21 1.3,2.045 2.484,2.045 z" />
      <path
         style="fill:#ffcc00;fill-opacity:1"
         id="path7236"
         d="m 531.99071,248.37894 c 1.291,-0.537 1.903,-2.016 1.365,-3.312 0,0 0,0 0.009,0 -0.537,-1.297 -2.022,-1.908 -3.312,-1.371 -1.302,0.531 -1.916,2.018 -1.386,3.311 0.407,0.98 1.352,1.568 2.354,1.568 0.315,0 0.644,-0.063 0.97,-0.196 z" />
      <path
         style="fill:#ffcc00;fill-opacity:1"
         id="path7238"
         d="m 525.96871,237.11094 c -1.168,0.774 -1.476,2.353 -0.705,3.513 0.488,0.732 1.294,1.135 2.113,1.135 0.479,0 0.976,-0.145 1.408,-0.432 1.165,-0.773 1.48,-2.351 0.694,-3.516 l 0,0 c -0.77,-1.167 -2.352,-1.481 -3.51,-0.7 z" />
      <path
         style="fill:#ff6600;fill-opacity:1"
         id="path7240"
         d="m 520.68371,235.02494 c 0.497,0.505 1.143,0.748 1.798,0.748 0.646,0 1.291,-0.243 1.788,-0.737 0.994,-0.989 0.994,-2.592 0,-3.586 -0.978,-0.994 -2.594,-0.994 -3.579,-0.008 -0.994,0.986 -1.002,2.597 -0.007,3.583 z" />
      <path
         style="fill:#ff6600;fill-opacity:1"
         id="path7242"
         d="m 514.41271,226.90294 c -0.787,1.159 -0.472,2.741 0.687,3.524 0.432,0.291 0.929,0.432 1.417,0.427 0.812,0 1.615,-0.394 2.104,-1.118 0.778,-1.16 0.471,-2.743 -0.687,-3.521 -1.16,-0.782 -2.742,-0.476 -3.521,0.688 z" />
      <path
         style="fill:#ff6600;fill-opacity:1"
         id="path7244"
         d="m 508.73071,226.98894 c 0.324,0.143 0.653,0.203 0.985,0.203 0.996,0 1.93,-0.591 2.337,-1.559 0.537,-1.293 -0.066,-2.78 -1.359,-3.323 -1.291,-0.539 -2.783,0.07 -3.321,1.366 -0.539,1.293 0.075,2.776 1.358,3.313 z" />
      <path
         style="fill:#cc0000;fill-opacity:1"
         id="path7246"
         d="m 501.82371,224.87394 c 0.173,0.038 0.338,0.054 0.504,0.054 1.184,0 2.235,-0.837 2.484,-2.033 0.273,-1.379 -0.612,-2.712 -1.986,-2.995 -1.378,-0.272 -2.71,0.618 -2.99,1.989 -0.273,1.373 0.62,2.711 1.988,2.985 z" />
      <path
         style="fill:#ffcc00;fill-opacity:1"
         id="path7248"
         d="m 535.72471,246.76594 c 0.365,1.047 1.342,1.702 2.385,1.702 0.284,0 0.564,-0.042 0.838,-0.143 1.326,-0.458 2.029,-1.903 1.564,-3.229 -0.463,-1.32 -1.904,-2.021 -3.229,-1.558 -1.327,0.457 -2.022,1.906 -1.558,3.228 z" />
      <path
         style="fill:#ffcc00;fill-opacity:1"
         id="path7250"
         d="m 532.74271,240.09194 c 0.464,0.838 1.334,1.312 2.228,1.312 0.415,0 0.838,-0.102 1.219,-0.312 1.233,-0.68 1.673,-2.22 1.002,-3.451 -0.68,-1.221 -2.221,-1.673 -3.446,-0.998 -1.226,0.68 -1.682,2.221 -1.003,3.449 z" />
      <path
         style="fill:#ff6600;fill-opacity:1"
         id="path7252"
         d="m 530.68171,234.96594 c 0.554,0 1.108,-0.182 1.571,-0.549 1.103,-0.871 1.285,-2.464 0.415,-3.562 -0.869,-1.099 -2.468,-1.28 -3.561,-0.409 -1.102,0.865 -1.285,2.468 -0.414,3.561 0.506,0.628 1.242,0.959 1.989,0.959 z" />
      <path
         style="fill:#ff6600;fill-opacity:1"
         id="path7254"
         d="m 523.69071,228.68394 c 0.48,0.435 1.094,0.65 1.698,0.65 0.688,0 1.382,-0.286 1.879,-0.835 0.945,-1.043 0.853,-2.646 -0.183,-3.586 -1.042,-0.937 -2.642,-0.854 -3.586,0.185 -0.935,1.042 -0.853,2.645 0.192,3.586 z" />
      <path
         style="fill:#ff6600;fill-opacity:1"
         id="path7256"
         d="m 517.87571,224.25594 c 0.414,0.27 0.885,0.397 1.349,0.397 0.837,0 1.665,-0.413 2.146,-1.176 0.754,-1.181 0.405,-2.746 -0.779,-3.503 -1.183,-0.75 -2.749,-0.398 -3.502,0.783 -0.747,1.18 -0.407,2.749 0.786,3.499 z" />
      <path
         style="fill:#ff6600;fill-opacity:1"
         id="path7258"
         d="m 511.39871,220.86994 c 0.323,0.131 0.654,0.198 0.985,0.198 0.993,0 1.931,-0.58 2.336,-1.548 0.547,-1.293 -0.06,-2.783 -1.352,-3.322 -1.29,-0.546 -2.781,0.062 -3.32,1.349 -0.546,1.292 0.058,2.784 1.351,3.323 z" />
      <path
         style="fill:#cc0000;fill-opacity:1"
         id="path7260"
         d="m 504.45571,218.61594 c 0.19,0.044 0.39,0.067 0.58,0.067 1.152,0 2.195,-0.788 2.461,-1.959 0.322,-1.364 -0.522,-2.733 -1.889,-3.048 -1.366,-0.319 -2.733,0.526 -3.049,1.896 -0.314,1.363 0.532,2.724 1.897,3.044 z" />
    </g>
    <g
       id="text9272"
       style="font-style:normal;font-weight:normal;font-size:78.36238861px;line-height:125%;font-family:sans-serif;letter-spacing:0px;word-spacing:0px;fill:#000000;fill-opacity:1;stroke:none;stroke-width:1px;stroke-linecap:butt;stroke-linejoin:miter;stroke-opacity:1"
       aria-label="liane">
      <path
         id="path887"
         style="font-style:normal;font-variant:normal;font-weight:normal;font-stretch:normal;font-family:'Unica One';-inkscape-font-specification:'Unica One';letter-spacing:0px;fill:#ffffff;fill-opacity:1"
         d="M 568.32989,263.54425 V 212.6087 h 5.48537 v 46.23381 h 14.34032 v 4.70174 z" />
      <path
         id="path889"
         style="font-style:normal;font-variant:normal;font-weight:normal;font-stretch:normal;font-family:'Unica One';-inkscape-font-specification:'Unica One';letter-spacing:0px;fill:#ffffff;fill-opacity:1"
         d="m 603.0481,263.54425 h -5.48537 V 212.6087 h 5.48537 z" />
      <path
         id="path891"
         style="font-style:normal;font-variant:normal;font-weight:normal;font-stretch:normal;font-family:'Unica One';-inkscape-font-specification:'Unica One';letter-spacing:0px;fill:#ffffff;fill-opacity:1"
         d="m 642.97619,263.54425 h -2.35087 l -2.03742,-5.01519 q -1.64561,2.82104 -4.30994,4.54502 -2.66432,1.64561 -5.87717,1.64561 -11.28419,0 -11.28419,-10.97074 v -7.83624 q 0,-10.97073 11.28419,-10.97073 h 9.09003 v -12.85143 q 0,-2.82105 -1.80233,-4.3883 -1.80234,-1.56724 -5.32864,-1.56724 -6.97426,0 -6.97426,5.95554 v 4.62338 h -5.48536 V 222.404 q 0,-5.25028 3.05613,-8.07133 3.13449,-2.89941 9.40349,-2.89941 6.26899,0 9.40348,2.89941 3.21286,2.82105 3.21286,8.07133 z m -5.48537,-23.90053 h -9.09003 q -3.29122,0 -4.54502,1.64561 -1.2538,1.64561 -1.2538,4.62338 v 7.83624 q 0,2.97777 1.2538,4.62338 1.2538,1.64561 4.54502,1.64561 3.29122,0 6.11226,-2.50759 2.82105,-2.58596 2.97777,-5.09356 z" />
      <path
         id="path893"
         style="font-style:normal;font-variant:normal;font-weight:normal;font-stretch:normal;font-family:'Unica One';-inkscape-font-specification:'Unica One';letter-spacing:0px;fill:#ffffff;fill-opacity:1"
         d="m 663.35041,263.54425 h -5.48537 V 212.6087 h 2.35087 l 1.95906,5.09355 q 3.7614,-6.26899 10.4222,-6.26899 11.51927,0 11.51927,10.97074 v 41.14025 h -5.48537 V 222.404 q 0,-2.97777 -1.33216,-4.62338 -1.2538,-1.64561 -4.70174,-1.64561 -3.44795,0 -6.34735,2.66432 -2.89941,2.66432 -2.89941,5.17191 z" />
      <path
         id="path895"
         style="font-style:normal;font-variant:normal;font-weight:normal;font-stretch:normal;font-family:'Unica One';-inkscape-font-specification:'Unica One';letter-spacing:0px;fill:#ffffff;fill-opacity:1"
         d="m 718.23469,253.74895 v -4.30993 h 5.48536 v 4.30993 q 0,5.25028 -3.21286,8.14969 -3.21285,2.82105 -9.63857,2.82105 -6.42572,0 -9.71694,-2.82105 -3.29122,-2.89941 -3.29122,-8.14969 V 222.404 q 0,-5.25028 3.21286,-8.07133 3.21286,-2.89941 9.63858,-2.89941 6.42571,0 9.71693,2.89941 3.29122,2.82105 3.29122,8.07133 v 17.23972 h -20.37422 v 14.10523 q 0,6.26899 7.44443,6.26899 7.44443,0 7.44443,-6.26899 z M 703.34583,222.404 v 12.53798 h 14.88886 V 222.404 q 0,-6.26899 -7.44443,-6.26899 -7.44443,0 -7.44443,6.26899 z" />
    </g>
  </g>
</svg>
